<svg xmlns="http://www.w3.org/2000/svg" xmlns:xlink="http://www.w3.org/1999/xlink" version="1.1" x="0px" y="0px" viewBox="0 0 64 80" style="enable-background:new 0 0 64 64;" xml:space="preserve"><g><path d="M25,20h14c0.6,0,1-0.4,1-1V3c0-0.6-0.4-1-1-1H25c-0.6,0-1,0.4-1,1v3h-3c-0.6,0-1,0.4-1,1s0.4,1,1,1h3v11   C24,19.6,24.4,20,25,20z M38,18H26V8h12V18z M26,4h12v2H26V4z"/><rect x="28" y="10" width="2" height="2"/><rect x="34" y="10" width="2" height="2"/><rect x="28" y="14" width="8" height="2"/><path d="M7,18c-0.6,0-1,0.4-1,1v8c0,0.6,0.4,1,1,1s1-0.4,1-1v-3h2.2c0.4,1.2,1.5,2,2.8,2c0.3,0,0.6-0.1,0.9-0.1l4.3,5.8   c0.3,0.4,1,0.5,1.4,0.2c0.1-0.1,0.1-0.1,0.2-0.2L24,26v21c0,0.6,0.4,1,1,1h2v8h-4c-2.8,0-5,2.2-5,5c0,0.6,0.4,1,1,1h10   c0.6,0,1-0.4,1-1v-4c0-0.6-0.4-1-1-1v-8h6v8c-0.6,0-1,0.4-1,1v4c0,0.6,0.4,1,1,1h10c0.6,0,1-0.4,1-1c0-2.8-2.2-5-5-5h-4v-8h2   c0.6,0,1-0.4,1-1V26l4.2,5.6c0.3,0.4,1,0.5,1.4,0.2c0.1-0.1,0.1-0.1,0.2-0.2l4.3-5.7c1.5,0.5,3.2-0.3,3.7-1.9H56v3c0,0.6,0.4,1,1,1   s1-0.4,1-1v-8c0-0.6-0.4-1-1-1s-1,0.4-1,1v3h-2.2c-0.5-1.6-2.2-2.4-3.8-1.8c-0.9,0.3-1.5,1-1.8,1.8H46v-3c0-0.6-0.4-1-1-1   s-1,0.4-1,1v8c0,0.6,0.4,1,1,1s1-0.4,1-1v-3h2.2c0.1,0.2,0.2,0.5,0.3,0.7L45,29.3l-5.2-6.9c0,0,0,0-0.1,0c0-0.1-0.1-0.1-0.2-0.1   c0,0-0.1-0.1-0.2-0.1c-0.1,0-0.1,0-0.2-0.1c-0.1,0-0.1,0-0.2,0c0,0,0,0-0.1,0H25c0,0,0,0-0.1,0c-0.1,0-0.3,0.1-0.4,0.1   c-0.1,0-0.1,0.1-0.1,0.1c-0.1,0-0.1,0.1-0.2,0.1c0,0,0,0-0.1,0L19,29.3l-3.5-4.7c0.1-0.2,0.2-0.4,0.3-0.7H18v3c0,0.6,0.4,1,1,1   s1-0.4,1-1v-8c0-0.6-0.4-1-1-1s-1,0.4-1,1v3h-2.2c-0.5-1.6-2.2-2.4-3.8-1.8c-0.9,0.3-1.5,1-1.8,1.8H8v-3C8,18.4,7.6,18,7,18z    M28,60h-7.8c0.4-1.2,1.6-2,2.8-2h5V60z M43.8,60H36v-2h5C42.3,58,43.4,58.8,43.8,60z M51,22c0.6,0,1,0.4,1,1s-0.4,1-1,1   s-1-0.4-1-1S50.4,22,51,22z M38,46h-5v-3c0-0.6-0.4-1-1-1s-1,0.4-1,1v3h-5v-8h12V46z M34,24v2h-4v-2H34z M26,24h2v3   c0,0.6,0.4,1,1,1h6c0.6,0,1-0.4,1-1v-3h2v12H26V24z M13,22c0.6,0,1,0.4,1,1s-0.4,1-1,1s-1-0.4-1-1S12.4,22,13,22z"/></g><text x="0" y="79" fill="#000000" font-size="5px" font-weight="bold" font-family="'Helvetica Neue', Helvetica, Arial-Unicode, Arial, Sans-serif">Created by Smalllike</text><text x="0" y="84" fill="#000000" font-size="5px" font-weight="bold" font-family="'Helvetica Neue', Helvetica, Arial-Unicode, Arial, Sans-serif">from the Noun Project</text></svg>